# xmcd
#
# Track frame offsets:
#	150
#	18270
#	32417
#	57306
#	79774
#	97145
#	122190
#	143445
#	172390
#	189300
#	207981
#
# Disc length: 2780 seconds
#
# Revision: 0
# Processed by: cddbd v1.4PL0 Copyright (c) Steve Scherf et al.
# Submitted via: dBpowerAMP V4.0
#
DISCID=940ada0b
DTITLE=Fatsoul - As Subtle As A Rhino
DYEAR=2002
DGENRE=Blues
TTITLE0=Relieve Me
TTITLE1=Great Love Takeover
TTITLE2=Better Days
TTITLE3=Shine
TTITLE4=Cold Ground
TTITLE5=Beginning
TTITLE6=Strollin' Benny
TTITLE7=Inside
TTITLE8=Paraguay Honeychild
TTITLE9=Darling Of The Underground Press
TTITLE10=The Apology
EXTD=
EXTT0=
EXTT1=
EXTT2=
EXTT3=
EXTT4=
EXTT5=
EXTT6=
EXTT7=
EXTT8=
EXTT9=
EXTT10=
PLAYORDER=
